<?xml version="1.0" encoding="UTF-8"?>
<svg xmlns="http://www.w3.org/2000/svg" version="1.1" width="1000" height="1000" viewBox="0 0 1000 1000"><rect x="0" y="0" width="1000" height="1000" fill="#ffffff"/><g transform="scale(40)"><g transform="translate(0,0)"><g><g transform="translate(3.5,3.5)"><path fill-rule="evenodd" d="M-3.5 -3.5L3.5 -3.5L3.5 3.5L-3.5 3.5ZM-2.5 -2.5L-2.5 2.5L2.5 2.5L2.5 -2.5Z" fill="#000000"/><path fill-rule="evenodd" d="M-1.5 -1.5L1.5 -1.5L1.5 1.5L-1.5 1.5Z" fill="#000000"/></g></g><g><g transform="translate(21.5,3.5)"><g transform="rotate(90)"><path fill-rule="evenodd" d="M-3.5 -3.5L3.5 -3.5L3.5 3.5L-3.5 3.5ZM-2.5 -2.5L-2.5 2.5L2.5 2.5L2.5 -2.5Z" fill="#000000"/><path fill-rule="evenodd" d="M-1.5 -1.5L1.5 -1.5L1.5 1.5L-1.5 1.5Z" fill="#000000"/></g></g></g><g><g transform="translate(3.5,21.5)"><g transform="rotate(-90)"><path fill-rule="evenodd" d="M-3.5 -3.5L3.5 -3.5L3.5 3.5L-3.5 3.5ZM-2.5 -2.5L-2.5 2.5L2.5 2.5L2.5 -2.5Z" fill="#000000"/><path fill-rule="evenodd" d="M-1.5 -1.5L1.5 -1.5L1.5 1.5L-1.5 1.5Z" fill="#000000"/></g></g></g><path fill-rule="evenodd" d="M9 0L9 1L8 1L8 2L9 2L9 3L8 3L8 4L10 4L10 7L11 7L11 4L12 4L12 5L13 5L13 4L12 4L12 2L13 2L13 3L14 3L14 2L15 2L15 0L14 0L14 1L11 1L11 2L10 2L10 0ZM16 0L16 1L17 1L17 0ZM10 3L10 4L11 4L11 3ZM15 3L15 4L14 4L14 7L15 7L15 6L16 6L16 8L15 8L15 9L14 9L14 10L11 10L11 11L10 11L10 9L11 9L11 8L6 8L6 9L5 9L5 8L0 8L0 9L1 9L1 10L0 10L0 17L1 17L1 13L2 13L2 12L3 12L3 10L2 10L2 9L4 9L4 10L6 10L6 11L9 11L9 13L8 13L8 12L5 12L5 11L4 11L4 15L2 15L2 17L4 17L4 16L5 16L5 17L7 17L7 16L9 16L9 17L8 17L8 19L9 19L9 20L8 20L8 25L9 25L9 24L10 24L10 23L9 23L9 22L10 22L10 21L12 21L12 22L13 22L13 23L12 23L12 25L13 25L13 24L14 24L14 25L15 25L15 24L14 24L14 23L15 23L15 22L18 22L18 21L20 21L20 23L18 23L18 24L22 24L22 25L25 25L25 24L24 24L24 23L25 23L25 21L23 21L23 22L22 22L22 23L21 23L21 21L22 21L22 19L25 19L25 12L23 12L23 13L24 13L24 14L22 14L22 15L23 15L23 16L24 16L24 18L22 18L22 19L21 19L21 17L22 17L22 16L15 16L15 13L16 13L16 14L17 14L17 15L19 15L19 14L20 14L20 15L21 15L21 13L22 13L22 12L19 12L19 13L18 13L18 12L17 12L17 11L19 11L19 10L20 10L20 11L21 11L21 9L22 9L22 8L21 8L21 9L20 9L20 8L19 8L19 10L18 10L18 8L17 8L17 6L16 6L16 5L17 5L17 3ZM8 5L8 7L9 7L9 5ZM12 6L12 9L13 9L13 6ZM23 8L23 9L24 9L24 10L25 10L25 9L24 9L24 8ZM6 9L6 10L7 10L7 9ZM8 9L8 10L9 10L9 9ZM1 10L1 11L2 11L2 10ZM15 10L15 12L13 12L13 11L12 11L12 13L11 13L11 12L10 12L10 13L11 13L11 14L10 14L10 17L9 17L9 18L10 18L10 20L11 20L11 18L13 18L13 19L12 19L12 21L14 21L14 22L15 22L15 21L16 21L16 20L15 20L15 19L16 19L16 17L15 17L15 18L14 18L14 13L15 13L15 12L16 12L16 13L17 13L17 14L18 14L18 13L17 13L17 12L16 12L16 11L17 11L17 10ZM22 10L22 11L23 11L23 10ZM5 13L5 15L6 15L6 16L7 16L7 15L8 15L8 14L7 14L7 13ZM12 13L12 14L13 14L13 13ZM6 14L6 15L7 15L7 14ZM12 15L12 17L13 17L13 15ZM10 17L10 18L11 18L11 17ZM17 17L17 20L20 20L20 17ZM18 18L18 19L19 19L19 18ZM23 22L23 23L22 23L22 24L23 24L23 23L24 23L24 22ZM16 24L16 25L17 25L17 24Z" fill="#000000"/></g></g></svg>
