<?xml version="1.0" encoding="UTF-8" standalone="no"?>
<!-- Generator: Adobe Illustrator 15.0.2, SVG Export Plug-In . SVG Version: 6.00 Build 0)  -->

<svg
   version="1.1"
   id="YOUR_ARTWORK_HERE"
   x="0px"
   y="0px"
   width="8.5in"
   height="11in"
   viewBox="0 0 816 1056"
   enable-background="new 0 0 378 738"
   xml:space="preserve"
   sodipodi:docname="playerAid.svg"
   inkscape:version="1.4.2 (f4327f4, 2025-05-13)"
   xmlns:inkscape="http://www.inkscape.org/namespaces/inkscape"
   xmlns:sodipodi="http://sodipodi.sourceforge.net/DTD/sodipodi-0.dtd"
   xmlns="http://www.w3.org/2000/svg"
   xmlns:svg="http://www.w3.org/2000/svg"><defs
   id="defs215"><rect
     x="83.353293"
     y="100.31138"
     width="299.20958"
     height="20.982036"
     id="rect225" /><rect
     x="55.473054"
     y="-64.095808"
     width="156.64671"
     height="46.562874"
     id="rect224" /><rect
     x="66.191086"
     y="83.675522"
     width="659.46771"
     height="30.880726"
     id="rect221" /><rect
     x="-12.69237"
     y="947.96295"
     width="135.24016"
     height="110.75703"
     id="rect12" /><rect
     x="-34.843777"
     y="892.00153"
     width="169.05022"
     height="137.57188"
     id="rect13" /><rect
     x="66.191086"
     y="83.675522"
     width="659.46771"
     height="30.880726"
     id="rect221-2" /><rect
     x="66.191086"
     y="83.675522"
     width="659.46771"
     height="30.880726"
     id="rect221-8" /><rect
     x="83.353294"
     y="100.31138"
     width="299.20959"
     height="20.982037"
     id="rect225-9" /></defs><sodipodi:namedview
   id="namedview215"
   pagecolor="#000000"
   bordercolor="#000000"
   borderopacity="0.25"
   inkscape:showpageshadow="2"
   inkscape:pageopacity="0.0"
   inkscape:pagecheckerboard="true"
   inkscape:deskcolor="#d1d1d1"
   showguides="false"
   inkscape:zoom="1.2300712"
   inkscape:cx="526.79879"
   inkscape:cy="590.61623"
   inkscape:window-width="3840"
   inkscape:window-height="2054"
   inkscape:window-x="2869"
   inkscape:window-y="-11"
   inkscape:window-maximized="1"
   inkscape:current-layer="YOUR_ARTWORK_HERE"
   inkscape:document-units="in"><sodipodi:guide
     position="683.31022,930.51099"
     orientation="1,0"
     id="guide215"
     inkscape:locked="false" /><sodipodi:guide
     position="342.51099,257.48901"
     orientation="0,-1"
     id="guide216"
     inkscape:locked="false" /><sodipodi:guide
     position="18.489,257.48901"
     orientation="1,0"
     id="guide217"
     inkscape:locked="false" /><sodipodi:guide
     position="18.489,941.51099"
     orientation="0,-1"
     id="guide218"
     inkscape:locked="false" /><sodipodi:guide
     position="65.132774,1022.511"
     orientation="0,-1"
     id="guide219"
     inkscape:locked="false" /><sodipodi:guide
     position="0,959.99999"
     orientation="1,0"
     id="guide220"
     inkscape:locked="false" /><sodipodi:guide
     position="-8.1616498e-08,959.99999"
     orientation="0,-1"
     id="guide221"
     inkscape:locked="false" /><sodipodi:guide
     position="664.82123,1037.511"
     orientation="1,0"
     id="guide223"
     inkscape:locked="false" /><sodipodi:guide
     position="0,959.99999"
     orientation="0,-1"
     id="guide224"
     inkscape:locked="false" /></sodipodi:namedview>




















<text
   xml:space="preserve"
   style="font-size:8px;font-family:'Atkinson Hyperlegible Next';-inkscape-font-specification:'Atkinson Hyperlegible Next';text-align:start;writing-mode:lr-tb;direction:ltr;text-anchor:start;white-space:pre;inline-size:198.222;display:inline;fill:#ffffff;stroke:none"
   x="71.132774"
   y="29.264997"
   id="text199-1"
   transform="translate(-52.643812,-123.31423)"><tspan
     x="71.132774"
     y="29.264997"
     id="tspan3">Use the powers on the lowest rank non-red <tspan
   style="font-weight:bold"
   id="tspan2">played</tspan> card</tspan></text><rect
   style="fill:#ff7f2a;fill-opacity:1;stroke:none;stroke-width:1"
   id="rect223"
   width="18.489"
   height="18.489"
   x="630.04279"
   y="-32.191616" /><text
   xml:space="preserve"
   id="text224"
   style="fill:#000000;text-orientation:auto;-inkscape-font-specification:'Atkinson Hyperlegible Next';font-family:'Atkinson Hyperlegible Next';font-size:12px;text-align:start;writing-mode:lr-tb;direction:ltr;fill-opacity:1;stroke:none;white-space:pre;shape-inside:url(#rect224)" /><g
   id="g225"
   transform="translate(66.335999,23.999998)"><rect
     style="fill:#808080;stroke:none;stroke-width:0.999997"
     id="rect199-6-2"
     width="683.328"
     height="1008"
     x="0"
     y="2.1535272e-06" /><rect
     style="fill:#ff0000;stroke:none;stroke-width:0.999996"
     id="rect199"
     width="683.31024"
     height="33.488995"
     x="-1.5448586e-07"
     y="4.0579312e-06" /><rect
     style="fill:#ffffff;stroke:none;stroke-width:1"
     id="rect199-6"
     width="683.31024"
     height="15"
     x="0"
     y="33.488998" /><rect
     style="fill:#ffffff;stroke:none;stroke-width:0.999999"
     id="rect199-6-1"
     width="683.31024"
     height="1"
     x="0"
     y="17.489002" /><text
     xml:space="preserve"
     style="font-size:12px;font-family:'Atkinson Hyperlegible Next';-inkscape-font-specification:'Atkinson Hyperlegible Next';text-align:start;writing-mode:lr-tb;direction:ltr;text-anchor:start;fill:#ffffff;stroke:none"
     x="18.069002"
     y="29.996996"
     id="text199"><tspan
       sodipodi:role="line"
       id="tspan199"
       x="18.069002"
       y="29.996996"
       style="font-size:12px">1</tspan></text><rect
     style="fill:#ff0000;stroke:none;stroke-width:1"
     id="rect199-9"
     width="70.49102"
     height="15"
     x="229.72301"
     y="273.72299" /><text
     xml:space="preserve"
     style="font-size:12px;font-family:'Atkinson Hyperlegible Next';-inkscape-font-specification:'Atkinson Hyperlegible Next';text-align:start;writing-mode:lr-tb;direction:ltr;text-anchor:start;fill:#000000;stroke:none"
     x="229.30301"
     y="285.23099"
     id="text199-4"><tspan
       sodipodi:role="line"
       id="tspan199-8"
       x="229.30301"
       y="285.23099">1 Dungeon</tspan></text><path
     d="m 31.111486,21.981029 c 2.149148,0 3.939103,1.216849 5.342815,3.583927 l 0.110219,0.189848 0.02256,0.0501 0.01505,0.04158 0.0069,0.02757 0.0069,0.04108 0.0055,0.05007 v 0.05512 l -0.0069,0.0556 a 0.49695947,0.49695947 0 0 1 -0.01305,0.05513 l -0.01955,0.05409 -0.01801,0.03756 -0.0081,0.015 c -1.384672,2.422686 -3.156092,3.697147 -5.287708,3.756768 l -0.156803,0.0025 c -2.202251,0 -4.02627,-1.276955 -5.444511,-3.759264 a 0.5009672,0.5009672 0 0 1 0,-0.496956 c 1.418226,-2.482317 3.242249,-3.759274 5.444501,-3.759274 z m 0,2.504846 a 1.502902,1.502902 0 1 0 0,3.005789 1.502902,1.502902 0 0 0 0,-3.005789 z"
     id="path22477"
     style="fill:#ffffff;stroke-width:21.3333" /><path
     d="m 42.132074,21.981029 c 2.149147,0 3.939103,1.216849 5.342815,3.583927 l 0.110219,0.189848 0.02256,0.0501 0.01505,0.04158 0.0069,0.02757 0.0069,0.04108 0.0055,0.05007 v 0.05512 l -0.007,0.0556 a 0.49695947,0.49695947 0 0 1 -0.01305,0.05513 l -0.01955,0.05409 -0.01801,0.03756 -0.0081,0.015 c -1.384671,2.422686 -3.156092,3.697147 -5.287706,3.756768 l -0.156803,0.0025 c -2.202252,0 -4.026272,-1.276955 -5.444511,-3.759264 a 0.5009672,0.5009672 0 0 1 0,-0.496956 c 1.418224,-2.482317 3.242247,-3.759274 5.444499,-3.759274 z m 0,2.504846 a 1.502902,1.502902 0 1 0 0,3.005789 1.502902,1.502902 0 0 0 0,-3.005789 z"
     id="path22477-2"
     style="fill:#ffffff;stroke-width:21.3333" /><path
     d="m 53.152062,21.981029 c 2.149155,0 3.939105,1.216849 5.342817,3.583927 l 0.110205,0.189848 0.02259,0.0501 0.01503,0.04158 0.0069,0.02757 0.0069,0.04108 0.0059,0.05007 v 0.05512 l -0.0069,0.0556 a 0.49695947,0.49695947 0 0 1 -0.0129,0.05513 l -0.01954,0.05409 -0.01797,0.03756 -0.0078,0.015 c -1.384674,2.422686 -3.156088,3.697147 -5.287708,3.756768 l -0.156802,0.0025 c -2.20225,0 -4.026268,-1.276955 -5.444509,-3.759264 a 0.5009672,0.5009672 0 0 1 0,-0.496956 c 1.418221,-2.482317 3.242249,-3.759274 5.4445,-3.759274 z m 0,2.504846 a 1.502902,1.502902 0 1 0 0,3.005789 1.502902,1.502902 0 0 0 0,-3.005789 z"
     id="path22477-2-5"
     style="fill:#ffffff;stroke-width:21.3333" /><rect
     style="fill:#ffffff;stroke-width:1"
     id="rect218"
     width="1"
     height="15"
     x="62.132774"
     y="18.489" /><rect
     style="fill:#ffffff;stroke-width:1"
     id="rect218-1"
     width="1"
     height="14.999998"
     x="416.84833"
     y="18.489" /><text
     xml:space="preserve"
     id="text221"
     style="font-size:12px;font-family:'Atkinson Hyperlegible Next';-inkscape-font-specification:'Atkinson Hyperlegible Next';text-align:start;writing-mode:lr-tb;direction:ltr;white-space:pre;shape-inside:url(#rect221);display:inline;fill:#000000;fill-opacity:0"
     transform="translate(-48.362387,-49.797997)"><tspan
       x="66.191406"
       y="94.29899"
       id="tspan9"><tspan
         style="fill-opacity:1"
         id="tspan4">If you have this in </tspan><tspan
         style="font-weight:bold"
         id="tspan5">play</tspan><tspan
         style="fill-opacity:1"
         id="tspan6"> when another player wins the auction, you may take any number of your </tspan><tspan
         style="font-weight:bold"
         id="tspan7">exiled</tspan><tspan
         style="fill-opacity:1"
         id="tspan8"> cards into your hand</tspan></tspan></text><text
     xml:space="preserve"
     id="text225"
     style="font-size:12px;font-family:'Atkinson Hyperlegible Next';-inkscape-font-specification:'Atkinson Hyperlegible Next';text-align:start;writing-mode:lr-tb;direction:ltr;white-space:pre;shape-inside:url(#rect225);fill:#ffffff;fill-opacity:1;stroke:none"
     transform="translate(-17.132721,-80.93676)"><tspan
       x="83.353516"
       y="110.93376"
       id="tspan10">Use the powers on the lowest rank non-red played card</tspan></text><text
     xml:space="preserve"
     id="text225-4"
     style="font-size:12px;font-family:'Atkinson Hyperlegible Next';-inkscape-font-specification:'Atkinson Hyperlegible Next';text-align:start;writing-mode:lr-tb;direction:ltr;white-space:pre;shape-inside:url(#rect225-9);fill:#ffffff;fill-opacity:1;stroke:none"
     transform="translate(336.86625,-80.93676)"><tspan
       x="83.353516"
       y="110.93376"
       id="tspan11">Draw 1</tspan></text></g></svg>
