<?xml version="1.0" encoding="UTF-8" standalone="no"?>
<!-- Generator: Adobe Illustrator 15.0.2, SVG Export Plug-In . SVG Version: 6.00 Build 0)  -->

<svg
   version="1.1"
   id="YOUR_ARTWORK_HERE"
   x="0px"
   y="0px"
   width="683.328"
   height="960"
   viewBox="0 0 683.328 959.99999"
   enable-background="new 0 0 378 738"
   xml:space="preserve"
   sodipodi:docname="playerAid.svg"
   inkscape:version="1.4.2 (f4327f4, 2025-05-13)"
   xmlns:inkscape="http://www.inkscape.org/namespaces/inkscape"
   xmlns:sodipodi="http://sodipodi.sourceforge.net/DTD/sodipodi-0.dtd"
   xmlns="http://www.w3.org/2000/svg"
   xmlns:svg="http://www.w3.org/2000/svg"><defs
   id="defs215"><rect
     x="66.191086"
     y="83.675522"
     width="659.46771"
     height="30.880726"
     id="rect221" /><rect
     x="-12.69237"
     y="947.96295"
     width="135.24016"
     height="110.75703"
     id="rect12" /><rect
     x="-34.843777"
     y="892.00153"
     width="169.05022"
     height="137.57188"
     id="rect13" /></defs><sodipodi:namedview
   id="namedview215"
   pagecolor="#000000"
   bordercolor="#000000"
   borderopacity="0.25"
   inkscape:showpageshadow="2"
   inkscape:pageopacity="0.0"
   inkscape:pagecheckerboard="true"
   inkscape:deskcolor="#d1d1d1"
   showguides="true"
   inkscape:zoom="2.5478502"
   inkscape:cx="306.14045"
   inkscape:cy="140.70686"
   inkscape:window-width="3840"
   inkscape:window-height="2054"
   inkscape:window-x="2869"
   inkscape:window-y="-11"
   inkscape:window-maximized="1"
   inkscape:current-layer="YOUR_ARTWORK_HERE"><sodipodi:guide
     position="683.31022,930.51099"
     orientation="1,0"
     id="guide215"
     inkscape:locked="false" /><sodipodi:guide
     position="342.51099,257.48901"
     orientation="0,-1"
     id="guide216"
     inkscape:locked="false" /><sodipodi:guide
     position="18.489,257.48901"
     orientation="1,0"
     id="guide217"
     inkscape:locked="false" /><sodipodi:guide
     position="18.489,941.51099"
     orientation="0,-1"
     id="guide218"
     inkscape:locked="false" /><sodipodi:guide
     position="50.132772,930.51099"
     orientation="0,-1"
     id="guide219"
     inkscape:locked="false" /><sodipodi:guide
     position="0,959.99999"
     orientation="1,0"
     id="guide220"
     inkscape:locked="false" /><sodipodi:guide
     position="-8.1616498e-08,959.99999"
     orientation="0,-1"
     id="guide221"
     inkscape:locked="false" /><sodipodi:guide
     position="672,960"
     orientation="1,0"
     id="guide223"
     inkscape:locked="false" /><sodipodi:guide
     position="0,959.99999"
     orientation="0,-1"
     id="guide224"
     inkscape:locked="false" /></sodipodi:namedview>




















<rect
   style="fill:#ff0000;stroke:none;stroke-width:1"
   id="rect199"
   width="683.31024"
   height="29.488995"
   x="-1.5448586e-07"
   y="4.9999999e-06" /><rect
   style="fill:#ffffff;stroke:none;stroke-width:1"
   id="rect199-6"
   width="683.31024"
   height="29.488995"
   x="0"
   y="29.489006" /><text
   xml:space="preserve"
   style="font-size:8px;font-family:'Atkinson Hyperlegible Next';-inkscape-font-specification:'Atkinson Hyperlegible Next';text-align:start;writing-mode:lr-tb;direction:ltr;text-anchor:start;fill:#ffffff;stroke:none"
   x="20.069002"
   y="27.324999"
   id="text199"><tspan
     sodipodi:role="line"
     id="tspan199"
     x="20.069002"
     y="27.324999"
     style="font-size:8px">1</tspan></text><text
   xml:space="preserve"
   style="font-size:8px;font-family:'Atkinson Hyperlegible Next';-inkscape-font-specification:'Atkinson Hyperlegible Next';text-align:start;writing-mode:lr-tb;direction:ltr;text-anchor:start;white-space:pre;inline-size:198.222;display:inline;fill:#ffffff;stroke:none"
   x="71.132774"
   y="29.264997"
   id="text199-1"
   transform="translate(-18,-2.4279984)"><tspan
     x="71.132774"
     y="29.264997"
     id="tspan3">Use the powers on the lowest rank non-red <tspan
   style="font-weight:bold"
   id="tspan1">played</tspan> card</tspan></text><text
   xml:space="preserve"
   style="font-size:8px;font-family:'Atkinson Hyperlegible Next';-inkscape-font-specification:'Atkinson Hyperlegible Next';text-align:start;writing-mode:lr-tb;direction:ltr;text-anchor:start;white-space:pre;inline-size:198.222;display:inline;fill:#ffffff;stroke:none"
   x="71.132774"
   y="29.264997"
   id="text199-1-2"
   transform="translate(182.71824,-2.4279984)"><tspan
     x="71.132774"
     y="29.264997"
     id="tspan4">Draw 1</tspan></text><rect
   style="fill:#ff0000;stroke:none;stroke-width:1"
   id="rect199-9"
   width="70.49102"
   height="15"
   x="229.72301"
   y="273.72299" /><text
   xml:space="preserve"
   style="font-size:12px;font-family:'Atkinson Hyperlegible Next';-inkscape-font-specification:'Atkinson Hyperlegible Next';text-align:start;writing-mode:lr-tb;direction:ltr;text-anchor:start;fill:#000000;stroke:none"
   x="229.30301"
   y="285.23099"
   id="text199-4"><tspan
     sodipodi:role="line"
     id="tspan199-8"
     x="229.30301"
     y="285.23099">1 Dungeon</tspan></text><path
   d="m 29.274639,21.980984 c 1.432774,0 2.626085,0.811238 3.561899,2.3893 l 0.07348,0.126566 0.01504,0.0334 0.01003,0.02772 0.0046,0.01838 0.0046,0.02739 0.0037,0.03338 v 0.03675 l -0.0046,0.03707 a 0.33130841,0.33130841 0 0 1 -0.0087,0.03675 l -0.01303,0.03606 -0.01201,0.02504 -0.0054,0.01 c -0.923121,1.615134 -2.104075,2.46478 -3.525161,2.504528 l -0.104536,0.0017 c -1.468177,0 -2.684197,-0.851309 -3.629697,-2.506192 a 0.33398025,0.33398025 0 0 1 0,-0.331306 c 0.94549,-1.654889 2.161513,-2.506199 3.62969,-2.506199 z m 0,1.669908 a 1.001941,1.001941 0 1 0 0,2.003872 1.001941,1.001941 0 0 0 0,-2.003872 z"
   id="path22477"
   style="fill:#ffffff;stroke-width:21.3333" /><path
   d="m 36.621744,21.980984 c 1.432774,0 2.626085,0.811238 3.561899,2.3893 l 0.07348,0.126566 0.01504,0.0334 0.01003,0.02772 0.0046,0.01838 0.0046,0.02739 0.0037,0.03338 v 0.03675 l -0.0047,0.03707 a 0.33130841,0.33130841 0 0 1 -0.0087,0.03675 l -0.01303,0.03606 -0.01201,0.02504 -0.0054,0.01 c -0.92312,1.615134 -2.104075,2.46478 -3.52516,2.504528 l -0.104536,0.0017 c -1.468177,0 -2.684198,-0.851309 -3.629697,-2.506192 a 0.33398025,0.33398025 0 0 1 0,-0.331306 c 0.945489,-1.654889 2.161512,-2.506199 3.629689,-2.506199 z m 0,1.669908 a 1.001941,1.001941 0 1 0 0,2.003872 1.001941,1.001941 0 0 0 0,-2.003872 z"
   id="path22477-2"
   style="fill:#ffffff;stroke-width:21.3333" /><path
   d="m 43.968449,21.980984 c 1.432779,0 2.626087,0.811238 3.561901,2.3893 l 0.07347,0.126566 0.01506,0.0334 0.01002,0.02772 0.0046,0.01838 0.0046,0.02739 0.0039,0.03338 v 0.03675 l -0.0046,0.03707 a 0.33130841,0.33130841 0 0 1 -0.0086,0.03675 l -0.01303,0.03606 -0.01198,0.02504 -0.0052,0.01 c -0.923122,1.615134 -2.104072,2.46478 -3.525161,2.504528 l -0.104535,0.0017 c -1.468176,0 -2.684196,-0.851309 -3.629696,-2.506192 a 0.33398025,0.33398025 0 0 1 0,-0.331306 c 0.945487,-1.654889 2.161513,-2.506199 3.62969,-2.506199 z m 0,1.669908 a 1.001941,1.001941 0 1 0 0,2.003872 1.001941,1.001941 0 0 0 0,-2.003872 z"
   id="path22477-2-5"
   style="fill:#ffffff;stroke-width:21.3333" /><rect
   style="fill:#ffffff;stroke-width:1"
   id="rect218"
   width="1"
   height="11"
   x="50.132774"
   y="18.489" /><rect
   style="fill:#ffffff;stroke-width:1"
   id="rect218-1"
   width="1"
   height="11"
   x="250.84833"
   y="18.489" /><text
   xml:space="preserve"
   id="text221"
   style="font-size:12px;font-family:'Atkinson Hyperlegible Next';-inkscape-font-specification:'Atkinson Hyperlegible Next';text-align:start;writing-mode:lr-tb;direction:ltr;white-space:pre;shape-inside:url(#rect221);display:inline;fill:#000000;fill-opacity:0"
   transform="translate(-48.362387,-55.797992)"><tspan
     x="66.191406"
     y="94.29899"
     id="tspan10"><tspan
       style="fill-opacity:1"
       id="tspan5">If you have this in </tspan><tspan
       style="font-weight:bold"
       id="tspan6">play</tspan><tspan
       style="fill-opacity:1"
       id="tspan7"> when another player wins the auction, you may take any number of your </tspan><tspan
       style="font-weight:bold"
       id="tspan8">exiled</tspan><tspan
       style="fill-opacity:1"
       id="tspan9"> cards into your hand</tspan></tspan></text><rect
   style="fill:#ff7f2a;fill-opacity:1;stroke:none;stroke-width:1"
   id="rect223"
   width="18.489"
   height="18.489"
   x="664.82123"
   y="29.489004" /></svg>
