<?xml version="1.0" encoding="UTF-8" standalone="no"?>
<!-- Generator: Adobe Illustrator 15.0.2, SVG Export Plug-In . SVG Version: 6.00 Build 0)  -->

<svg
   version="1.1"
   id="YOUR_ARTWORK_HERE"
   x="0px"
   y="0px"
   width="8.5in"
   height="11in"
   viewBox="0 0 816 1056"
   enable-background="new 0 0 378 738"
   xml:space="preserve"
   sodipodi:docname="playerAid.svg"
   inkscape:version="1.4.2 (f4327f4, 2025-05-13)"
   xmlns:inkscape="http://www.inkscape.org/namespaces/inkscape"
   xmlns:sodipodi="http://sodipodi.sourceforge.net/DTD/sodipodi-0.dtd"
   xmlns="http://www.w3.org/2000/svg"
   xmlns:svg="http://www.w3.org/2000/svg"><defs
   id="defs215"><rect
     x="83.353293"
     y="100.31138"
     width="299.20958"
     height="20.982036"
     id="rect225" /><rect
     x="55.473054"
     y="-64.095808"
     width="156.64671"
     height="46.562874"
     id="rect224" /><rect
     x="66.191086"
     y="83.675522"
     width="659.46771"
     height="30.880726"
     id="rect221" /><rect
     x="-12.69237"
     y="947.96295"
     width="135.24016"
     height="110.75703"
     id="rect12" /><rect
     x="-34.843777"
     y="892.00153"
     width="169.05022"
     height="137.57188"
     id="rect13" /><rect
     x="66.191086"
     y="83.675522"
     width="659.46771"
     height="30.880726"
     id="rect221-2" /><rect
     x="66.191086"
     y="83.675522"
     width="659.46771"
     height="30.880726"
     id="rect221-8" /><rect
     x="83.353294"
     y="100.31138"
     width="299.20959"
     height="20.982037"
     id="rect225-9" /></defs><sodipodi:namedview
   id="namedview215"
   pagecolor="#000000"
   bordercolor="#000000"
   borderopacity="0.25"
   inkscape:showpageshadow="2"
   inkscape:pageopacity="0.0"
   inkscape:pagecheckerboard="true"
   inkscape:deskcolor="#d1d1d1"
   showguides="true"
   inkscape:zoom="3.2464055"
   inkscape:cx="352.38974"
   inkscape:cy="189.28627"
   inkscape:window-width="3840"
   inkscape:window-height="2054"
   inkscape:window-x="2869"
   inkscape:window-y="-11"
   inkscape:window-maximized="1"
   inkscape:current-layer="YOUR_ARTWORK_HERE"
   inkscape:document-units="in"><sodipodi:guide
     position="677.76006,1013.511"
     orientation="1,0"
     id="guide215"
     inkscape:locked="false" /><sodipodi:guide
     position="342.51099,257.48901"
     orientation="0,-1"
     id="guide216"
     inkscape:locked="false" /><sodipodi:guide
     position="84.824999,1014.511"
     orientation="1,0"
     id="guide217"
     inkscape:locked="false" /><sodipodi:guide
     position="66.335999,1032"
     orientation="0,-1"
     id="guide218"
     inkscape:locked="false" /><sodipodi:guide
     position="84.824999,1013.511"
     orientation="0,-1"
     id="guide219"
     inkscape:locked="false" /><sodipodi:guide
     position="0,959.99999"
     orientation="1,0"
     id="guide220"
     inkscape:locked="false" /><sodipodi:guide
     position="-8.1616498e-08,959.99999"
     orientation="0,-1"
     id="guide221"
     inkscape:locked="false" /><sodipodi:guide
     position="659.27105,996.69002"
     orientation="1,0"
     id="guide223"
     inkscape:locked="false" /><sodipodi:guide
     position="0,959.99999"
     orientation="0,-1"
     id="guide224"
     inkscape:locked="false" /><sodipodi:guide
     position="66.335999,1032"
     orientation="1,0"
     id="guide225"
     inkscape:locked="false" /></sodipodi:namedview>




















<text
   xml:space="preserve"
   id="text224"
   style="font-size:12px;font-family:'Atkinson Hyperlegible Next';-inkscape-font-specification:'Atkinson Hyperlegible Next';text-align:start;writing-mode:lr-tb;direction:ltr;white-space:pre;shape-inside:url(#rect224);display:inline;fill:#000000;fill-opacity:1;stroke:none" /><rect
   style="fill:#808080;stroke:none;stroke-width:0.999994"
   id="rect199-6-2"
   width="611.42407"
   height="1008"
   x="66.335999"
   y="24" /><rect
   style="fill:#ff0000;stroke:none;stroke-width:0.999998"
   id="rect199"
   width="611.42407"
   height="33.488998"
   x="66.335999"
   y="24.000002" /><rect
   style="fill:#ffffff;stroke:none;stroke-width:0.999991"
   id="rect199-6"
   width="611.40814"
   height="13"
   x="66.335999"
   y="57.488995" /><rect
   style="fill:#ffffff;stroke:none;stroke-width:1"
   id="rect199-6-1"
   width="611.40814"
   height="1"
   x="66.335999"
   y="41.488998" /><text
   xml:space="preserve"
   style="font-size:12px;font-family:'Atkinson Hyperlegible Next';-inkscape-font-specification:'Atkinson Hyperlegible Next';text-align:start;writing-mode:lr-tb;direction:ltr;text-anchor:start;fill:#ffffff;stroke:none"
   x="84.404999"
   y="53.996994"
   id="text199"><tspan
     sodipodi:role="line"
     id="tspan199"
     x="84.404999"
     y="53.996994"
     style="font-size:12px">1</tspan></text><rect
   style="fill:#ff0000;stroke:none;stroke-width:1"
   id="rect199-9"
   width="70.49102"
   height="15"
   x="296.05902"
   y="297.72299" /><text
   xml:space="preserve"
   style="font-size:12px;font-family:'Atkinson Hyperlegible Next';-inkscape-font-specification:'Atkinson Hyperlegible Next';text-align:start;writing-mode:lr-tb;direction:ltr;text-anchor:start;fill:#000000;stroke:none"
   x="295.63901"
   y="309.23099"
   id="text199-4"><tspan
     sodipodi:role="line"
     id="tspan199-8"
     x="295.63901"
     y="309.23099">1 Dungeon</tspan></text><path
   d="m 97.447485,45.981027 c 2.149148,0 3.939105,1.216849 5.342815,3.583927 l 0.11022,0.189848 0.0226,0.0501 0.0151,0.04158 0.007,0.02757 0.007,0.04108 0.005,0.05007 v 0.05512 l -0.007,0.0556 a 0.49695947,0.49695947 0 0 1 -0.0131,0.05513 l -0.0195,0.05409 -0.018,0.03756 -0.008,0.015 c -1.38467,2.422686 -3.156093,3.697147 -5.287709,3.756768 l -0.156803,0.0025 c -2.202251,0 -4.02627,-1.276955 -5.444511,-3.759264 a 0.5009672,0.5009672 0 0 1 0,-0.496956 c 1.418226,-2.482317 3.242249,-3.759274 5.444501,-3.759274 z m 0,2.504846 a 1.502902,1.502902 0 1 0 0,3.005789 1.502902,1.502902 0 0 0 0,-3.005789 z"
   id="path22477"
   style="fill:#ffffff;stroke-width:21.3333" /><path
   d="m 108.46807,45.981027 c 2.14915,0 3.93911,1.216849 5.34282,3.583927 l 0.11022,0.189848 0.0226,0.0501 0.0151,0.04158 0.007,0.02757 0.007,0.04108 0.005,0.05007 v 0.05512 l -0.007,0.0556 a 0.49695947,0.49695947 0 0 1 -0.013,0.05513 l -0.0196,0.05409 -0.018,0.03756 -0.008,0.015 c -1.38467,2.422686 -3.15609,3.697147 -5.28771,3.756768 l -0.1568,0.0025 c -2.20225,0 -4.02627,-1.276955 -5.44451,-3.759264 a 0.5009672,0.5009672 0 0 1 0,-0.496956 c 1.41822,-2.482317 3.24224,-3.759274 5.4445,-3.759274 z m 0,2.504846 a 1.502902,1.502902 0 1 0 0,3.005789 1.502902,1.502902 0 0 0 0,-3.005789 z"
   id="path22477-2"
   style="fill:#ffffff;stroke-width:21.3333" /><path
   d="m 119.48806,45.981027 c 2.14916,0 3.93911,1.216849 5.34282,3.583927 l 0.1102,0.189848 0.0226,0.0501 0.015,0.04158 0.007,0.02757 0.007,0.04108 0.006,0.05007 v 0.05512 l -0.007,0.0556 a 0.49695947,0.49695947 0 0 1 -0.0129,0.05513 l -0.0195,0.05409 -0.018,0.03756 -0.008,0.015 c -1.38467,2.422686 -3.15608,3.697147 -5.28771,3.756768 l -0.1568,0.0025 c -2.20225,0 -4.02627,-1.276955 -5.44451,-3.759264 a 0.5009672,0.5009672 0 0 1 0,-0.496956 c 1.41823,-2.482317 3.24225,-3.759274 5.4445,-3.759274 z m 0,2.504846 a 1.502902,1.502902 0 1 0 0,3.005789 1.502902,1.502902 0 0 0 0,-3.005789 z"
   id="path22477-2-5"
   style="fill:#ffffff;stroke-width:21.3333" /><rect
   style="fill:#ffffff;stroke-width:1"
   id="rect218"
   width="1"
   height="15"
   x="128.46878"
   y="42.488998" /><rect
   style="fill:#ffffff;stroke-width:1"
   id="rect218-1"
   width="1"
   height="14.999998"
   x="483.18433"
   y="42.488998" /><text
   xml:space="preserve"
   id="text221"
   style="font-size:10.6667px;font-family:'Atkinson Hyperlegible Next';-inkscape-font-specification:'Atkinson Hyperlegible Next';text-align:start;writing-mode:lr-tb;direction:ltr;white-space:pre;shape-inside:url(#rect221);display:inline;fill:#000000;fill-opacity:0"
   transform="translate(17.973612,-25.797999)"><tspan
     x="66.191406"
     y="93.118664"
     id="tspan7"><tspan
       style="fill-opacity:1"
       id="tspan2">If you have this in </tspan><tspan
       style="font-weight:bold"
       id="tspan3">play</tspan><tspan
       style="fill-opacity:1"
       id="tspan4"> when another player wins the auction, you may take any number of your </tspan><tspan
       style="font-weight:bold"
       id="tspan5">exiled</tspan><tspan
       style="fill-opacity:1"
       id="tspan6"> cards into your hand</tspan></tspan></text><text
   xml:space="preserve"
   id="text225"
   style="font-size:12px;font-family:'Atkinson Hyperlegible Next';-inkscape-font-specification:'Atkinson Hyperlegible Next';text-align:start;writing-mode:lr-tb;direction:ltr;white-space:pre;shape-inside:url(#rect225);display:inline;fill:#ffffff;fill-opacity:1;stroke:none"
   transform="translate(49.203278,-56.936762)"><tspan
     x="83.353516"
     y="110.93376"
     id="tspan8">Use the powers on the lowest rank non-red played card</tspan></text><text
   xml:space="preserve"
   id="text225-4"
   style="font-size:12px;font-family:'Atkinson Hyperlegible Next';-inkscape-font-specification:'Atkinson Hyperlegible Next';text-align:start;writing-mode:lr-tb;direction:ltr;white-space:pre;shape-inside:url(#rect225-9);display:inline;fill:#ffffff;fill-opacity:1;stroke:none"
   transform="translate(403.20225,-56.936762)"><tspan
     x="83.353516"
     y="110.93376"
     id="tspan9">Draw 1</tspan></text><rect
   style="fill:#ff7f2a;fill-opacity:1;stroke:none;stroke-width:1"
   id="rect223"
   width="18.489"
   height="18.489"
   x="659.27106"
   y="24" /></svg>
