<?xml version="1.0" encoding="UTF-8" standalone="no"?>
<svg
   xmlns:dc="http://purl.org/dc/elements/1.1/"
   xmlns:cc="http://creativecommons.org/ns#"
   xmlns:rdf="http://www.w3.org/1999/02/22-rdf-syntax-ns#"
   xmlns:svg="http://www.w3.org/2000/svg"
   xmlns="http://www.w3.org/2000/svg"
   xmlns:xlink="http://www.w3.org/1999/xlink"
   xmlns:sodipodi="http://sodipodi.sourceforge.net/DTD/sodipodi-0.dtd"
   xmlns:inkscape="http://www.inkscape.org/namespaces/inkscape"
   width="333.26196"
   height="334.43182"
   id="svg1434"
   version="1.1"
   inkscape:version="0.91 r13725"
   sodipodi:docname="selection.svg"
   inkscape:export-filename="/home/david/Sync/empire/images/selection/selection.png"
   inkscape:export-xdpi="375"
   inkscape:export-ydpi="375">
  <metadata
     id="metadata82">
    <rdf:RDF>
      <cc:Work
         rdf:about="">
        <dc:format>image/svg+xml</dc:format>
        <dc:type
           rdf:resource="http://purl.org/dc/dcmitype/StillImage" />
        <dc:title></dc:title>
      </cc:Work>
    </rdf:RDF>
  </metadata>
  <sodipodi:namedview
     pagecolor="#ffffff"
     bordercolor="#666666"
     borderopacity="1"
     objecttolerance="10"
     gridtolerance="10"
     guidetolerance="10"
     inkscape:pageopacity="0"
     inkscape:pageshadow="2"
     inkscape:window-width="1855"
     inkscape:window-height="1056"
     id="namedview80"
     showgrid="false"
     fit-margin-top="0"
     fit-margin-left="0"
     fit-margin-right="0"
     fit-margin-bottom="0"
     inkscape:zoom="2.7479441"
     inkscape:cx="167.42381"
     inkscape:cy="167.21592"
     inkscape:window-x="1985"
     inkscape:window-y="24"
     inkscape:window-maximized="1"
     inkscape:current-layer="svg1434" />
  <defs
     id="defs1436">
    <radialGradient
       id="radialGradient5453"
       gradientUnits="userSpaceOnUse"
       cy="5.1875"
       cx="98.5"
       gradientTransform="matrix(0.757066,0.790695,-0.883776,0.846178,28.51359,-77.08551)"
       r="5.5">
      <stop
         id="stop5449"
         stop-color="#dcdcdc"
         offset="0.00000000"
         style="stop-color:#f8f8f8;stop-opacity:1.0000000;" />
      <stop
         id="stop5451"
         stop-color="#434343"
         offset="1.0000000"
         style="stop-color:#a8a8a8;stop-opacity:1.0000000;" />
    </radialGradient>
    <linearGradient
       id="linearGradient5410">
      <stop
         id="stop5412"
         stop-color="#bfbfbf"
         offset="0.00000000"
         style="stop-color:#e6e6e6;stop-opacity:1.0000000;" />
      <stop
         id="stop5421"
         stop-color="#828282"
         offset="0.66666669"
         style="stop-color:#646464;stop-opacity:1.0000000;" />
      <stop
         id="stop5414"
         stop-color="#828282"
         offset="1.0000000"
         style="stop-color:#828282;stop-opacity:1.0000000;" />
    </linearGradient>
    <linearGradient
       id="g_pillar"
       y2="29.562"
       spreadMethod="reflect"
       gradientUnits="userSpaceOnUse"
       x2="104"
       gradientTransform="matrix(0.96104,0,0,0.96104,5.909967,4.0595)"
       y1="29.562"
       x1="98.869003">
      <stop
         id="stop5524"
         stop-color="#9e9e9e"
         offset="0.00000000"
         style="stop-color:#e6e6e6;stop-opacity:1.0000000;" />
      <stop
         id="stop5530"
         stop-color="#999"
         offset="0.80000001"
         style="stop-color:#828282;stop-opacity:1.0000000;" />
      <stop
         id="stop5526"
         stop-color="#6c6c6c"
         offset="1.0000000"
         style="stop-color:#5a5a5a;stop-opacity:1.0000000;" />
    </linearGradient>
    <linearGradient
       id="linearGradient5489"
       y2="30.781"
       gradientUnits="userSpaceOnUse"
       x2="-160.35001"
       gradientTransform="translate(203.0276,10.34144)"
       y1="30.781"
       x1="-149.55">
      <stop
         id="stop5485"
         stop-color="#3d3d3d"
         offset="0" />
      <stop
         id="stop5487"
         stop-color="#3d3d3d"
         stop-opacity="0"
         offset="1" />
    </linearGradient>
    <linearGradient
       id="linearGradient5381"
       y2="191.25"
       gradientUnits="userSpaceOnUse"
       x2="115.13"
       gradientTransform="matrix(0.96104,0,0,0.96104,5.115881,0.087885)"
       y1="191.25"
       x1="84.375">
      <stop
         id="stop5283"
         stop-color="#4c4c4c"
         stop-opacity="0"
         offset="0" />
      <stop
         id="stop5289"
         stop-color="#696969"
         offset="0.40000001"
         style="stop-color:#0a0a0a;stop-opacity:1.0000000;" />
      <stop
         id="stop5291"
         stop-color="#696969"
         offset="0.60000002"
         style="stop-color:#0a0a0a;stop-opacity:1.0000000;" />
      <stop
         id="stop5285"
         stop-color="#4b4b4b"
         stop-opacity="0"
         offset="1" />
    </linearGradient>
    <linearGradient
       id="linearGradient2222">
      <stop
         id="stop2224"
         stop-color="#818181"
         offset="0" />
      <stop
         id="stop3200"
         stop-color="#e6e6e6"
         offset="0.45" />
      <stop
         id="stop3202"
         stop-color="#e6e6e6"
         offset="0.55" />
      <stop
         id="stop2226"
         stop-color="#818181"
         offset="1" />
    </linearGradient>
    <linearGradient
       id="linearGradient5546">
      <stop
         id="stop5548"
         stop-color="#d9d9d9"
         offset="0" />
      <stop
         id="stop5554"
         stop-color="#b8b8b8"
         offset="0.1157" />
      <stop
         id="stop5556"
         stop-color="#989898"
         offset="0.31556" />
      <stop
         id="stop5550"
         stop-color="#646464"
         offset="1" />
    </linearGradient>
    <linearGradient
       id="g_background">
      <stop
         stop-opacity="0.333333"
         id="col_01"
         offset="0"
         stop-color="#000000" />
      <stop
         stop-opacity="0.078431"
         id="col_02"
         offset="1"
         stop-color="#000000" />
    </linearGradient>
    <linearGradient
       gradientTransform="matrix(0.851641,-0.524127,0.524127,0.851641,-1.2464913,156.52996)"
       gradientUnits="userSpaceOnUse"
       xlink:href="#g_background"
       id="linearGradient2050"
       y2="26.290001"
       x2="263.79999"
       y1="304.5"
       x1="92.599998" />
  </defs>
  <path
     sodipodi:nodetypes="ccscczc"
     stroke-miterlimit="4"
     d="m 160.39105,26.28966 0,25.48799 c 0,0.68896 3.17941,2.93341 5.96186,2.95841 2.78245,0.02499 5.16792,-2.16948 5.16792,-2.95841 l 0,-25.48799 c 0,-1.57788 -2.94566,-3.24229 -5.38201,-3.24481 -2.48315,-0.0025 -5.74777,1.8669 -5.74777,3.24481 z"
     style="fill:#000000;stroke:#000000;stroke-width:2;stroke-linecap:round;stroke-linejoin:round;stroke-miterlimit:4;stroke-dasharray:none;stroke-opacity:1"
     id="path14308"
     inkscape:connector-curvature="0" />
  <use
     x="0"
     y="0"
     xlink:href="#g3365"
     id="use3371"
     transform="matrix(-1,0,0,1,331.85902,0.198148)"
     width="400"
     height="360"
     style="fill:#000000;stroke:#000000" />
  <g
     id="g3365"
     transform="translate(-212.76639,-408.39227)"
     style="fill:#000000;stroke:#000000">
    <path
       sodipodi:nodetypes="cccsccsssssssssssssccscsccss"
       id="path1861"
       style="fill:#000000;stroke:#000000;stroke-width:2;stroke-linecap:round;stroke-linejoin:round;stroke-miterlimit:4;stroke-dasharray:none;stroke-opacity:1"
       d="m 375.62485,439.2957 c -2.63392,0.45702 -4.49107,1.5487 -4.49107,2.87777 l 0,7.01356 c -7.9712,-4.62188 -17.82539,-7.1153 -24.87932,-7.1153 -9.42139,0 -14.32587,1.11106 -25.63671,7.36884 -9.40524,5.20163 -12.00525,7.43182 -18.57148,6.00424 -6.56623,-1.42597 -9.69592,-4.81244 -13.12115,-5.95418 -3.42523,-1.14174 -8.56064,2.53864 -8.88201,3.63355 -0.3569,1.2128 -1.48087,-0.30522 -1.76671,-1.16112 -0.28584,-0.8559 -6.74549,2.81317 -6.45965,5.09666 0.28584,2.2851 5.83952,8.54288 6.66151,5.85405 0.78485,-2.56932 1.87814,-2.81479 2.87616,-1.81677 1.00932,1.00931 4.72846,3.06994 5.30014,7.06523 0.57006,3.99691 -1.45019,5.12896 -2.87778,3.98722 -1.42596,-1.14175 -1.98472,-1.68436 -2.27056,-2.8261 -0.28584,-1.14174 -6.25617,1.71827 -5.40026,2.57417 0.85751,0.8559 2.5451,6.24163 4.54274,6.81331 1.99765,0.57006 2.01864,3.14746 2.01864,4.2892 0,1.14175 3.43169,0.89143 3.43169,0.60559 0,-0.28583 0.25192,-4.03727 0.25192,-4.03727 0,0 6.59368,-0.5523 6.30784,-8.83195 -0.28422,-8.27803 -4.8738,-10.83444 -2.87615,-11.4045 1.99926,-0.57168 11.97618,4.55889 20.54005,4.84473 8.56387,0.28423 20.16216,-8.27642 35.57811,-8.27642 11.43841,0 21.02614,5.31629 25.23298,8.07456 l 0,2.77441 c 0,1.33069 1.85715,2.42076 4.49107,2.87778 0.44248,0.0759 0.44248,-30.40716 0,-30.33126 z"
       stroke-miterlimit="4"
       inkscape:connector-curvature="0" />
    <path
       id="path1863"
       style="fill:#000000;stroke:#000000;stroke-width:1.82376039;stroke-linecap:butt;stroke-linejoin:miter;stroke-miterlimit:4;stroke-dasharray:none"
       d="m 285.18983,453.6135 c 0,0 10.99109,5.99455 21.83844,5.99455 10.84897,0 23.40975,-10.56314 37.96818,-10.56314 12.56562,0 23.60676,7.58847 30.00827,11.58376"
       stroke-miterlimit="4"
       inkscape:connector-curvature="0" />
  </g>
  <path
     id="path1737"
     style="fill:#000000;fill-opacity:1;fill-rule:evenodd;stroke:#000000;stroke-width:2;stroke-linecap:butt;stroke-linejoin:miter;stroke-miterlimit:4;stroke-dasharray:none;stroke-opacity:1"
     d="m 103.30169,310.48259 c 0,0 -0.39656,-6.75513 9.88903,-6.90636 10.2856,-0.13443 100.1926,0 106.89731,0 6.72152,0 8.3851,4.60424 8.33468,6.93996 -0.15123,5.7301 -46.39526,17.67759 -46.41206,17.42554 l -61.26998,-4.90671 c -5.81243,-4.18415 -14.04293,-4.10013 -17.43898,-12.55243 l 0,0 z"
     stroke-miterlimit="4"
     inkscape:connector-curvature="0" />
  <path
     id="path1739"
     style="fill:#000000;fill-rule:evenodd;stroke:#000000;stroke-width:2;stroke-linecap:butt;stroke-linejoin:miter;stroke-miterlimit:4;stroke-dasharray:none;stroke-opacity:1"
     d="m 103.3437,309.69281 0,13.10696 c -0.44194,13.82951 125.06221,14.51847 125.0286,0 l 0,-13.10696 c 0.13443,14.58569 -125.28065,14.6193 -125.0286,0 l 0,0 z"
     stroke-miterlimit="4"
     inkscape:connector-curvature="0" />
  <path
     id="path1741"
     style="fill:#000000;fill-opacity:1;fill-rule:evenodd;stroke:#000000;stroke-width:2;stroke-linecap:butt;stroke-linejoin:miter;stroke-miterlimit:4;stroke-dasharray:none;stroke-opacity:1"
     d="m 111.50699,300.68598 c 0.16467,-2.40294 16.92813,-8.58674 52.64123,-8.58674 35.89289,0 56.07425,4.92351 56.07425,8.75478 0,0.94101 -11.04009,8.46911 -11.04009,8.46911 l -46.17682,4.4362 -50.8029,-8.25066 -0.69567,-4.82269 0,0 z"
     stroke-miterlimit="4"
     inkscape:connector-curvature="0" />
  <path
     id="path1743"
     style="fill:#000000;fill-rule:evenodd;stroke:#000000;stroke-width:2;stroke-linecap:butt;stroke-linejoin:miter;stroke-miterlimit:4;stroke-dasharray:none;stroke-opacity:1"
     d="m 111.52379,300.3499 0,9.51095 c 0.19996,8.72116 108.69868,9.94784 108.68187,0 l 0,-9.51095 c -0.0504,9.42693 -108.60961,9.2925 -108.68187,0 z"
     stroke-miterlimit="4"
     inkscape:connector-curvature="0" />
  <path
     id="path1745"
     style="fill:#000000;stroke:#000000;stroke-width:2;stroke-linecap:round;stroke-linejoin:miter;stroke-miterlimit:4;stroke-dasharray:none"
     d="m 190.26131,301.30772 c 0,0 -15.34186,-1.61317 -18.98829,-4.04972 -3.62961,-2.41974 -2.82303,-2.62139 -6.55347,-2.62139 -3.73549,0 -2.92722,0.20165 -6.5602,2.62139 -3.63466,2.43655 -18.97652,4.04972 -18.97652,4.04972"
     stroke-miterlimit="4"
     inkscape:connector-curvature="0" />
  <path
     id="path1747"
     style="fill:#000000;fill-opacity:1;fill-rule:evenodd;stroke:#000000;stroke-width:2;stroke-linecap:butt;stroke-linejoin:round;stroke-miterlimit:4;stroke-dasharray:none;stroke-opacity:1"
     d="m 152.67123,286.95728 26.38195,0.0336 c 0.18484,1.02503 -8.4187,8.60354 -11.20813,8.45231 l -5.40914,-0.0168 c -3.17591,0.084 -9.79493,-8.04901 -9.76468,-8.46911 l 0,0 z"
     stroke-miterlimit="4"
     inkscape:connector-curvature="0" />
  <path
     id="path1759"
     style="fill:#000000;stroke:#000000;stroke-width:2;stroke-linecap:round;stroke-linejoin:round;stroke-miterlimit:4;stroke-dasharray:none;stroke-opacity:1"
     d="m 158.08205,33.28559 0,25.48799 c 0,0.68896 4.44507,2.93341 8.33515,2.95841 3.89008,0.02499 7.22516,-2.16948 7.22516,-2.95841 l 0,-25.48799 c 0,-1.57788 -4.11826,-3.24229 -7.52448,-3.24481 -3.47163,-0.0025 -8.03583,1.8669 -8.03583,3.24481 z"
     stroke-miterlimit="4"
     sodipodi:nodetypes="ccscczc"
     inkscape:connector-curvature="0" />
  <path
     id="path1761"
     style="fill:#000000;fill-opacity:1;fill-rule:evenodd;stroke:#000000;stroke-width:2;stroke-linecap:butt;stroke-linejoin:miter;stroke-miterlimit:4;stroke-dasharray:none;stroke-opacity:1"
     d="m 159.11716,282.26902 0,-210.31623 13.48336,-0.07058 -0.0672,211.82858 -13.41615,-1.42832 0,-0.0135 z"
     stroke-miterlimit="4"
     inkscape:connector-curvature="0" />
  <path
     id="path1765"
     style="fill:#000000;fill-rule:evenodd;stroke:#000000;stroke-width:2;stroke-linecap:round;stroke-linejoin:round;stroke-miterlimit:4;stroke-dasharray:none;stroke-opacity:1"
     d="m 158.79621,71.62848 14.12359,0 c 0,0 -2.53738,-3.81446 -7.24244,-3.81446 -4.70842,0 -6.88115,3.62625 -6.88115,3.81446 z"
     stroke-miterlimit="4"
     inkscape:connector-curvature="0" />
  <path
     id="path1771"
     style="fill:#000000;fill-opacity:1;fill-rule:evenodd;stroke:#000000;stroke-width:2;stroke-linecap:butt;stroke-linejoin:round;stroke-miterlimit:4;stroke-dasharray:none;stroke-opacity:1"
     d="m 161.98389,17.06489 c 0,0 -0.0214,2.75078 0,4.29001 -1.84271,0.39461 -5.24155,1.31105 -5.21241,2.32475 0.0292,1.01411 5.2935,2.88766 9.04031,2.82225 3.81222,-0.06541 9.04199,-1.94963 9.04044,-2.88766 -0.002,-0.93585 -2.87537,-1.76662 -5.14196,-2.25934 0.0226,-1.73545 0,-4.29001 0,-4.29001 l -0.55452,0 -6.56692,0 -0.60494,0 0,0 z"
     stroke-miterlimit="4"
     sodipodi:nodetypes="cczzzcccccc"
     inkscape:connector-curvature="0" />
  <path
     style="fill:#000000;stroke:#000000;stroke-width:2;stroke-miterlimit:4;stroke-dasharray:none;stroke-opacity:1"
     id="path1773"
     d="m 175.17132,10.31024 c 0,5.1419 -4.16834,9.31023 -9.31023,9.31023 -5.14191,0 -9.31024,-4.16833 -9.31024,-9.31023 0,-5.1419 4.16833,-9.31024 9.31024,-9.31024 5.14189,0 9.31023,4.16834 9.31023,9.31024 z"
     inkscape:connector-curvature="0" />
  <path
     id="path1775"
     style="fill:#000000;fill-rule:evenodd;stroke:#000000;stroke-width:2;stroke-linecap:butt;stroke-linejoin:miter;stroke-miterlimit:4;stroke-dasharray:none;stroke-opacity:1"
     d="m 73.354391,64.14101 c 0.30247,2.72558 0.36968,5.45115 0,8.17505 0,0 5.14196,-0.07058 5.14196,1.11073 0,1.1813 -0.63855,22.58765 1.20987,24.72845 1.86522,2.14081 3.04149,1.69719 3.89848,0.55453 0.85699,-1.14098 3.39436,-0.97462 3.68003,-0.40329 0.28566,0.57133 0.9074,4.07156 -0.90741,5.24782 -2.53737,1.64341 -8.8724,1.59636 -9.44373,-4.54206 -0.57132,-6.13675 -0.55452,-11.40473 -2.92386,-11.40473 -0.85699,0 -0.80658,2.92386 -0.80658,6.20732 0,3.28346 0.28567,4.13205 0.857,4.84453 0.57133,0.71416 0.43689,7.57011 0,7.57011 l -4.28497,0 c -0.4369,0 -0.57133,-6.85595 0,-7.57011 0.57133,-0.71248 0.85699,-1.56107 0.85699,-4.84453 0,-3.28346 0.40329,-6.20732 -0.4537,-6.20732 -2.57098,0 -2.25171,4.71178 -2.823042,10.8502 -0.57132,6.13843 -6.48626,6.29806 -9.3429,5.29992 -2.85665,-0.99983 -1.46193,-5.12012 -1.20988,-5.70321 0.38649,-0.8738 2.06687,-0.13275 3.12551,0.50412 1.22668,0.736 2.43655,1.58627 4.28497,-0.55453 1.86522,-2.1408 2.03325,-23.39592 2.03325,-24.57722 0,-1.18131 4.688262,-1.11073 4.688262,-1.11073 0.11763,-2.7239 0.50411,-5.44947 0,-8.17505 1.22668,0.67047 1.84842,0.38985 2.41975,0 l 0,0 z m -1.3107,9.8403 c -1.37791,0 -2.47016,0.24198 -2.47016,0.55621 l 0,3.83462 c 0,0.31423 1.09225,0.55621 2.47016,0.55621 1.36111,0 2.47016,-0.24198 2.47016,-0.55621 l 0,-3.83462 c 0,-0.31423 -1.10905,-0.55621 -2.47016,-0.55621 l 0,0 z"
     stroke-miterlimit="4"
     inkscape:connector-curvature="0" />
  <use
     x="0"
     y="0"
     xlink:href="#path1775"
     id="use2637"
     transform="matrix(-1,0,0,1,331.78602,-0.069374)"
     width="400"
     height="360"
     style="fill:#000000;stroke:#000000" />
  <g
     id="g4105"
     transform="translate(-420.03649,-447.26377)"
     style="fill:#000000;stroke:#000000">
    <path
       stroke-miterlimit="4"
       d="m 489.39954,545.25231 c -2.52897,11.56941 2.15425,6.91476 2.3206,9.15302 l 0.25206,159.56711"
       style="fill:#000000;stroke:#000000;stroke-width:3;stroke-linecap:round;stroke-linejoin:miter;stroke-miterlimit:4;stroke-dasharray:none;stroke-opacity:1"
       id="path1789"
       inkscape:connector-curvature="0" />
    <path
       stroke-miterlimit="4"
       d="m 421.04811,697.31989 c 43.8142,24.55034 99.30367,23.17242 142.73979,0 3.58929,-2.16769 -47.45222,-7.79696 -71.60599,-7.79696 -43.16221,0 -71.91854,4.28497 -71.1338,7.79696 l 0,0 z"
       style="fill:#000000;fill-rule:evenodd;stroke:#000000;stroke-width:2;stroke-linecap:butt;stroke-linejoin:miter;stroke-miterlimit:4;stroke-dasharray:none;stroke-opacity:1"
       id="path1735"
       inkscape:connector-curvature="0" />
    <path
       sodipodi:nodetypes="cccc"
       stroke-miterlimit="4"
       d="m 481.64483,546.57209 c 0.35288,0.10923 0.4201,0.99647 0.18484,1.94588 -0.25205,0.94942 -0.77297,1.96101 -1.26028,3.57249 -16.98863,51.102 -35.20362,100.93133 -53.08286,151.72919"
       style="fill:#000000;stroke:#000000;stroke-width:3;stroke-linecap:round;stroke-linejoin:miter;stroke-miterlimit:4;stroke-dasharray:none;stroke-opacity:1"
       id="path4099"
       inkscape:connector-curvature="0" />
    <use
       height="360"
       width="400"
       transform="matrix(-1,0,0,1,984.194,0.370001)"
       id="use4103"
       xlink:href="#path4099"
       y="0"
       x="0"
       style="fill:#000000;stroke:#000000" />
    <path
       stroke-miterlimit="4"
       d="m 421.04811,697.70638 c 47.81014,21.13916 99.30367,16.90461 142.73979,0 -0.97798,4.94031 -25.51319,35.22074 -73.31998,35.20394 -47.15647,0 -69.41981,-31.77597 -69.41981,-35.20394 l 0,0 z"
       style="fill:#000000;fill-rule:evenodd;stroke:#000000;stroke-width:2;stroke-linecap:butt;stroke-linejoin:miter;stroke-miterlimit:4;stroke-dasharray:none;stroke-opacity:1"
       id="path1795"
       inkscape:connector-curvature="0" />
  </g>
  <use
     x="0"
     y="0"
     xlink:href="#g4105"
     id="use4112"
     transform="translate(188.1759,-0.261623)"
     width="400"
     height="360"
     style="fill:#000000;stroke:#000000" />
  <use
     x="0"
     y="0"
     xlink:href="#path1747"
     id="use6292"
     transform="matrix(1,0,0,-1,0.18499399,573.70746)"
     width="400"
     height="360"
     style="fill:#000000;stroke:#000000;stroke-width:2;stroke-miterlimit:4;stroke-dasharray:none" />
  <use
     x="0"
     y="0"
     xlink:href="#path1765"
     id="use9209"
     transform="translate(-0.08267001,-7.64221)"
     width="400"
     height="360"
     style="fill:#000000;stroke:#000000;stroke-width:2;stroke-miterlimit:4;stroke-dasharray:none" />
  <use
     x="0"
     y="0"
     xlink:href="#path1765"
     id="use9211"
     transform="matrix(1,0,0,-1,-0.08267001,135.80046)"
     width="400"
     height="360"
     style="fill:#000000;stroke:#000000;stroke-width:2;stroke-miterlimit:4;stroke-dasharray:none" />
</svg>
